<?xml version="1.0" encoding="UTF-8" standalone="no"?>
<!DOCTYPE svg PUBLIC "-//W3C//DTD SVG 1.1//EN"
 "http://www.w3.org/Graphics/SVG/1.1/DTD/svg11.dtd">
<!-- Generated by graphviz version 2.40.1 (20161225.0304)
 -->
<!-- Title: dependencies Pages: 1 -->
<svg width="608pt" height="284pt"
 viewBox="0.00 0.00 608.00 284.00" xmlns="http://www.w3.org/2000/svg" xmlns:xlink="http://www.w3.org/1999/xlink">
<g id="graph0" class="graph" transform="scale(1 1) rotate(0) translate(4 280)">
<title>dependencies</title>
<polygon fill="#ffffff" stroke="transparent" points="-4,4 -4,-280 604,-280 604,4 -4,4"/>
<text text-anchor="start" x="279.0091" y="-42.4" font-family="sans-serif" font-weight="bold" font-size="14.00" fill="#000000">Legend</text>
<polygon fill="#ffffb3" stroke="transparent" points="66,-10 66,-30 86,-30 86,-10 66,-10"/>
<text text-anchor="start" x="89.629" y="-15.4" font-family="sans-serif" font-size="14.00" fill="#000000"> &#160;Declarations</text>
<polygon fill="#8dd3c7" stroke="transparent" points="179,-10 179,-30 199,-30 199,-10 179,-10"/>
<text text-anchor="start" x="202.7251" y="-15.4" font-family="sans-serif" font-size="14.00" fill="#000000"> &#160;Module</text>
<polygon fill="#80b1d3" stroke="transparent" points="265,-10 265,-30 285,-30 285,-10 265,-10"/>
<text text-anchor="start" x="288.7812" y="-15.4" font-family="sans-serif" font-size="14.00" fill="#000000"> &#160;Bootstrap</text>
<polygon fill="#fdb462" stroke="transparent" points="362,-10 362,-30 382,-30 382,-10 362,-10"/>
<text text-anchor="start" x="385.6732" y="-15.4" font-family="sans-serif" font-size="14.00" fill="#000000"> &#160;Providers</text>
<polygon fill="#fb8072" stroke="transparent" points="458,-10 458,-30 478,-30 478,-10 458,-10"/>
<text text-anchor="start" x="481.7258" y="-15.4" font-family="sans-serif" font-size="14.00" fill="#000000"> &#160;Exports</text>
<g id="clust1" class="cluster">
<title>cluster_NgxCrumbsModule</title>
<polygon fill="none" stroke="#000000" stroke-dasharray="1,5" points="8,-70 8,-268 592,-268 592,-70 8,-70"/>
</g>
<g id="clust2" class="cluster">
<title>cluster_NgxCrumbsModule_declarations</title>
<polygon fill="none" stroke="#000000" points="22,-78 22,-130 579,-130 579,-78 22,-78"/>
</g>
<g id="clust7" class="cluster">
<title>cluster_NgxCrumbsModule_exports</title>
<polygon fill="none" stroke="#000000" points="16,-208 16,-260 584,-260 584,-208 16,-208"/>
</g>
<!-- NgxCrumbDirective -->
<g id="node1" class="node">
<title>NgxCrumbDirective</title>
<polygon fill="#ffffb3" stroke="#000000" points="570.5772,-122 439.4228,-122 439.4228,-86 570.5772,-86 570.5772,-122"/>
<text text-anchor="middle" x="505" y="-99.8" font-family="Times,serif" font-size="14.00" fill="#000000">NgxCrumbDirective</text>
</g>
<!-- NgxCrumbsModule -->
<g id="node4" class="node">
<title>NgxCrumbsModule</title>
<polygon fill="#8dd3c7" stroke="#000000" points="410.9888,-187 407.9888,-191 386.9888,-191 383.9888,-187 283.0112,-187 283.0112,-151 410.9888,-151 410.9888,-187"/>
<text text-anchor="middle" x="347" y="-164.8" font-family="Times,serif" font-size="14.00" fill="#000000">NgxCrumbsModule</text>
</g>
<!-- NgxCrumbDirective&#45;&gt;NgxCrumbsModule -->
<g id="edge1" class="edge">
<title>NgxCrumbDirective&#45;&gt;NgxCrumbsModule</title>
<path fill="none" stroke="#000000" d="M527.5962,-122.0225C527.5962,-139.3734 527.5962,-163 527.5962,-163 527.5962,-163 421.18,-163 421.18,-163"/>
<polygon fill="#000000" stroke="#000000" points="421.18,-159.5001 411.18,-163 421.1799,-166.5001 421.18,-159.5001"/>
</g>
<!-- NgxCrumbsComponent -->
<g id="node2" class="node">
<title>NgxCrumbsComponent</title>
<polygon fill="#ffffb3" stroke="#000000" points="421.7716,-122 272.2284,-122 272.2284,-86 421.7716,-86 421.7716,-122"/>
<text text-anchor="middle" x="347" y="-99.8" font-family="Times,serif" font-size="14.00" fill="#000000">NgxCrumbsComponent</text>
</g>
<!-- NgxCrumbsComponent&#45;&gt;NgxCrumbsModule -->
<g id="edge2" class="edge">
<title>NgxCrumbsComponent&#45;&gt;NgxCrumbsModule</title>
<path fill="none" stroke="#000000" d="M347,-122.1061C347,-122.1061 347,-140.991 347,-140.991"/>
<polygon fill="#000000" stroke="#000000" points="343.5001,-140.9909 347,-150.991 350.5001,-140.991 343.5001,-140.9909"/>
</g>
<!-- NgxCrumbsWindowTitleComponent -->
<g id="node3" class="node">
<title>NgxCrumbsWindowTitleComponent</title>
<polygon fill="#ffffb3" stroke="#000000" points="254.4226,-122 29.5774,-122 29.5774,-86 254.4226,-86 254.4226,-122"/>
<text text-anchor="middle" x="142" y="-99.8" font-family="Times,serif" font-size="14.00" fill="#000000">NgxCrumbsWindowTitleComponent</text>
</g>
<!-- NgxCrumbsWindowTitleComponent&#45;&gt;NgxCrumbsModule -->
<g id="edge3" class="edge">
<title>NgxCrumbsWindowTitleComponent&#45;&gt;NgxCrumbsModule</title>
<path fill="none" stroke="#000000" d="M177.9037,-122.0225C177.9037,-139.3734 177.9037,-163 177.9037,-163 177.9037,-163 272.5896,-163 272.5896,-163"/>
<polygon fill="#000000" stroke="#000000" points="272.5896,-166.5001 282.5896,-163 272.5895,-159.5001 272.5896,-166.5001"/>
</g>
<!-- NgxCrumbDirective  -->
<g id="node5" class="node">
<title>NgxCrumbDirective </title>
<polygon fill="#fb8072" stroke="#000000" points="576.0779,-252 441.9221,-252 441.9221,-216 576.0779,-216 576.0779,-252"/>
<text text-anchor="middle" x="509" y="-229.8" font-family="Times,serif" font-size="14.00" fill="#000000">NgxCrumbDirective </text>
</g>
<!-- NgxCrumbsModule&#45;&gt;NgxCrumbDirective  -->
<g id="edge4" class="edge">
<title>NgxCrumbsModule&#45;&gt;NgxCrumbDirective </title>
<path fill="none" stroke="#000000" stroke-dasharray="5,2" d="M410.9911,-175C446.9385,-175 484.6538,-175 484.6538,-175 484.6538,-175 484.6538,-205.9775 484.6538,-205.9775"/>
<polygon fill="#000000" stroke="#000000" points="481.1539,-205.9774 484.6538,-215.9775 488.1539,-205.9775 481.1539,-205.9774"/>
</g>
<!-- NgxCrumbsComponent  -->
<g id="node6" class="node">
<title>NgxCrumbsComponent </title>
<polygon fill="#fb8072" stroke="#000000" points="423.7716,-252 270.2284,-252 270.2284,-216 423.7716,-216 423.7716,-252"/>
<text text-anchor="middle" x="347" y="-229.8" font-family="Times,serif" font-size="14.00" fill="#000000">NgxCrumbsComponent </text>
</g>
<!-- NgxCrumbsModule&#45;&gt;NgxCrumbsComponent  -->
<g id="edge5" class="edge">
<title>NgxCrumbsModule&#45;&gt;NgxCrumbsComponent </title>
<path fill="none" stroke="#000000" stroke-dasharray="5,2" d="M347,-187.1061C347,-187.1061 347,-205.991 347,-205.991"/>
<polygon fill="#000000" stroke="#000000" points="343.5001,-205.9909 347,-215.991 350.5001,-205.991 343.5001,-205.9909"/>
</g>
<!-- NgxCrumbsWindowTitleComponent  -->
<g id="node7" class="node">
<title>NgxCrumbsWindowTitleComponent </title>
<polygon fill="#fb8072" stroke="#000000" points="251.9222,-252 24.0778,-252 24.0778,-216 251.9222,-216 251.9222,-252"/>
<text text-anchor="middle" x="138" y="-229.8" font-family="Times,serif" font-size="14.00" fill="#000000">NgxCrumbsWindowTitleComponent </text>
</g>
<!-- NgxCrumbsModule&#45;&gt;NgxCrumbsWindowTitleComponent  -->
<g id="edge6" class="edge">
<title>NgxCrumbsModule&#45;&gt;NgxCrumbsWindowTitleComponent </title>
<path fill="none" stroke="#000000" stroke-dasharray="5,2" d="M282.7962,-175C210.7568,-175 103.8463,-175 103.8463,-175 103.8463,-175 103.8463,-205.9775 103.8463,-205.9775"/>
<polygon fill="#000000" stroke="#000000" points="100.3464,-205.9774 103.8463,-215.9775 107.3464,-205.9775 100.3464,-205.9774"/>
</g>
</g>
</svg>
