<?xml version="1.0" encoding="UTF-8" standalone="no"?>
<!DOCTYPE svg PUBLIC "-//W3C//DTD SVG 1.1//EN"
 "http://www.w3.org/Graphics/SVG/1.1/DTD/svg11.dtd">
<!-- Generated by graphviz version 2.40.1 (20161225.0304)
 -->
<!-- Title: dependencies Pages: 1 -->
<svg width="948pt" height="396pt"
 viewBox="0.00 0.00 948.00 395.59" xmlns="http://www.w3.org/2000/svg" xmlns:xlink="http://www.w3.org/1999/xlink">
<g id="graph0" class="graph" transform="scale(1 1) rotate(0) translate(4 391.5901)">
<title>dependencies</title>
<polygon fill="#ffffff" stroke="transparent" points="-4,4 -4,-391.5901 944,-391.5901 944,4 -4,4"/>
<text text-anchor="start" x="449.0091" y="-42.4" font-family="sans-serif" font-weight="bold" font-size="14.00" fill="#000000">Legend</text>
<polygon fill="#ffffb3" stroke="transparent" points="236,-10 236,-30 256,-30 256,-10 236,-10"/>
<text text-anchor="start" x="259.629" y="-15.4" font-family="sans-serif" font-size="14.00" fill="#000000"> &#160;Declarations</text>
<polygon fill="#8dd3c7" stroke="transparent" points="349,-10 349,-30 369,-30 369,-10 349,-10"/>
<text text-anchor="start" x="372.7251" y="-15.4" font-family="sans-serif" font-size="14.00" fill="#000000"> &#160;Module</text>
<polygon fill="#80b1d3" stroke="transparent" points="435,-10 435,-30 455,-30 455,-10 435,-10"/>
<text text-anchor="start" x="458.7812" y="-15.4" font-family="sans-serif" font-size="14.00" fill="#000000"> &#160;Bootstrap</text>
<polygon fill="#fdb462" stroke="transparent" points="532,-10 532,-30 552,-30 552,-10 532,-10"/>
<text text-anchor="start" x="555.6732" y="-15.4" font-family="sans-serif" font-size="14.00" fill="#000000"> &#160;Providers</text>
<polygon fill="#fb8072" stroke="transparent" points="628,-10 628,-30 648,-30 648,-10 628,-10"/>
<text text-anchor="start" x="651.7258" y="-15.4" font-family="sans-serif" font-size="14.00" fill="#000000"> &#160;Exports</text>
<g id="clust1" class="cluster">
<title>cluster_NgxDateTimeInputsModule</title>
<polygon fill="none" stroke="#000000" stroke-dasharray="1,5" points="8,-70 8,-379.5901 932,-379.5901 932,-70 8,-70"/>
</g>
<g id="clust2" class="cluster">
<title>cluster_NgxDateTimeInputsModule_declarations</title>
<polygon fill="none" stroke="#000000" points="230,-189.5901 230,-241.5901 590,-241.5901 590,-189.5901 230,-189.5901"/>
</g>
<g id="clust3" class="cluster">
<title>cluster_NgxDateTimeInputsModule_NgxDateInputComponent_providers</title>
<polygon fill="none" stroke="#000000" points="16,-78 16,-176.5901 924,-176.5901 924,-78 16,-78"/>
</g>
<g id="clust6" class="cluster">
<title>cluster_NgxDateTimeInputsModule_exports</title>
<polygon fill="none" stroke="#000000" points="136,-319.5901 136,-371.5901 502,-371.5901 502,-319.5901 136,-319.5901"/>
</g>
<g id="clust8" class="cluster">
<title>cluster_NgxDateTimeInputsModule_providers</title>
<polygon fill="none" stroke="#000000" points="16,-189.5901 16,-241.5901 222,-241.5901 222,-189.5901 16,-189.5901"/>
</g>
<!-- NgxDateInputComponent -->
<g id="node1" class="node">
<title>NgxDateInputComponent</title>
<polygon fill="#ffffb3" stroke="#000000" points="581.9171,-233.5901 420.0829,-233.5901 420.0829,-197.5901 581.9171,-197.5901 581.9171,-233.5901"/>
<text text-anchor="middle" x="501" y="-211.3901" font-family="Times,serif" font-size="14.00" fill="#000000">NgxDateInputComponent</text>
</g>
<!-- NgxDateTimeInputsModule -->
<g id="node3" class="node">
<title>NgxDateTimeInputsModule</title>
<polygon fill="#8dd3c7" stroke="#000000" points="407.1274,-298.5901 404.1274,-302.5901 383.1274,-302.5901 380.1274,-298.5901 232.8726,-298.5901 232.8726,-262.5901 407.1274,-262.5901 407.1274,-298.5901"/>
<text text-anchor="middle" x="320" y="-276.3901" font-family="Times,serif" font-size="14.00" fill="#000000">NgxDateTimeInputsModule</text>
</g>
<!-- NgxDateInputComponent&#45;&gt;NgxDateTimeInputsModule -->
<g id="edge1" class="edge">
<title>NgxDateInputComponent&#45;&gt;NgxDateTimeInputsModule</title>
<path fill="none" stroke="#000000" d="M457.375,-233.6962C457.375,-252.9292 457.375,-280.5901 457.375,-280.5901 457.375,-280.5901 417.3909,-280.5901 417.3909,-280.5901"/>
<polygon fill="#000000" stroke="#000000" points="417.3909,-277.0902 407.3909,-280.5901 417.3908,-284.0902 417.3909,-277.0902"/>
</g>
<!-- NgxTimeInputComponent -->
<g id="node2" class="node">
<title>NgxTimeInputComponent</title>
<polygon fill="#ffffb3" stroke="#000000" points="402.0392,-233.5901 237.9608,-233.5901 237.9608,-197.5901 402.0392,-197.5901 402.0392,-233.5901"/>
<text text-anchor="middle" x="320" y="-211.3901" font-family="Times,serif" font-size="14.00" fill="#000000">NgxTimeInputComponent</text>
</g>
<!-- NgxTimeInputComponent&#45;&gt;NgxDateTimeInputsModule -->
<g id="edge3" class="edge">
<title>NgxTimeInputComponent&#45;&gt;NgxDateTimeInputsModule</title>
<path fill="none" stroke="#000000" d="M320,-233.6962C320,-233.6962 320,-252.581 320,-252.581"/>
<polygon fill="#000000" stroke="#000000" points="316.5001,-252.581 320,-262.581 323.5001,-252.5811 316.5001,-252.581"/>
</g>
<!-- NgxDateInputComponent  -->
<g id="node5" class="node">
<title>NgxDateInputComponent </title>
<polygon fill="#fb8072" stroke="#000000" points="494.4166,-363.5901 329.5834,-363.5901 329.5834,-327.5901 494.4166,-327.5901 494.4166,-363.5901"/>
<text text-anchor="middle" x="412" y="-341.3901" font-family="Times,serif" font-size="14.00" fill="#000000">NgxDateInputComponent </text>
</g>
<!-- NgxDateTimeInputsModule&#45;&gt;NgxDateInputComponent  -->
<g id="edge4" class="edge">
<title>NgxDateTimeInputsModule&#45;&gt;NgxDateInputComponent </title>
<path fill="none" stroke="#000000" stroke-dasharray="5,2" d="M368.4276,-298.6962C368.4276,-298.6962 368.4276,-317.581 368.4276,-317.581"/>
<polygon fill="#000000" stroke="#000000" points="364.9277,-317.581 368.4276,-327.581 371.9277,-317.5811 364.9277,-317.581"/>
</g>
<!-- NgxTimeInputComponent  -->
<g id="node6" class="node">
<title>NgxTimeInputComponent </title>
<polygon fill="#fb8072" stroke="#000000" points="312.0386,-363.5901 143.9614,-363.5901 143.9614,-327.5901 312.0386,-327.5901 312.0386,-363.5901"/>
<text text-anchor="middle" x="228" y="-341.3901" font-family="Times,serif" font-size="14.00" fill="#000000">NgxTimeInputComponent </text>
</g>
<!-- NgxDateTimeInputsModule&#45;&gt;NgxTimeInputComponent  -->
<g id="edge5" class="edge">
<title>NgxDateTimeInputsModule&#45;&gt;NgxTimeInputComponent </title>
<path fill="none" stroke="#000000" stroke-dasharray="5,2" d="M272.3529,-298.6962C272.3529,-298.6962 272.3529,-317.581 272.3529,-317.581"/>
<polygon fill="#000000" stroke="#000000" points="268.853,-317.581 272.3529,-327.581 275.853,-317.5811 268.853,-317.581"/>
</g>
<!-- {
 &#160;&#160;&#160;provide: NG_VALUE_ACCESSOR, useExisting: forwardRef(() =&gt; NgxDateInputComponent), multi: true
} -->
<g id="node4" class="node">
<title>{
 &#160;&#160;&#160;provide: NG_VALUE_ACCESSOR, useExisting: forwardRef(() =&gt; NgxDateInputComponent), multi: true
}</title>
<ellipse fill="#fdb462" stroke="#000000" cx="470" cy="-127.295" rx="446.2783" ry="41.0911"/>
<text text-anchor="middle" x="470" y="-139.895" font-family="Times,serif" font-size="14.00" fill="#000000">{</text>
<text text-anchor="middle" x="470" y="-123.095" font-family="Times,serif" font-size="14.00" fill="#000000"> &#160;&#160;&#160;provide: NG_VALUE_ACCESSOR, useExisting: forwardRef(() =&gt; NgxDateInputComponent), multi: true</text>
<text text-anchor="middle" x="470" y="-106.295" font-family="Times,serif" font-size="14.00" fill="#000000">}</text>
</g>
<!-- {
 &#160;&#160;&#160;provide: NG_VALUE_ACCESSOR, useExisting: forwardRef(() =&gt; NgxDateInputComponent), multi: true
}&#45;&gt;NgxDateInputComponent -->
<g id="edge2" class="edge">
<title>{
 &#160;&#160;&#160;provide: NG_VALUE_ACCESSOR, useExisting: forwardRef(() =&gt; NgxDateInputComponent), multi: true
}&#45;&gt;NgxDateInputComponent</title>
<path fill="none" stroke="#000000" d="M501,-168.5989C501,-168.5989 501,-187.2551 501,-187.2551"/>
<polygon fill="#000000" stroke="#000000" points="497.5001,-187.255 501,-197.2551 504.5001,-187.2551 497.5001,-187.255"/>
</g>
<!-- NgxDateTimeService -->
<g id="node7" class="node">
<title>NgxDateTimeService</title>
<ellipse fill="#fdb462" stroke="#000000" cx="119" cy="-215.5901" rx="95.4617" ry="18"/>
<text text-anchor="middle" x="119" y="-211.3901" font-family="Times,serif" font-size="14.00" fill="#000000">NgxDateTimeService</text>
</g>
<!-- NgxDateTimeService&#45;&gt;NgxDateTimeInputsModule -->
<g id="edge6" class="edge">
<title>NgxDateTimeService&#45;&gt;NgxDateTimeInputsModule</title>
<path fill="none" stroke="#000000" d="M179.1056,-229.6941C179.1056,-248.8111 179.1056,-280.5901 179.1056,-280.5901 179.1056,-280.5901 222.7737,-280.5901 222.7737,-280.5901"/>
<polygon fill="#000000" stroke="#000000" points="222.7737,-284.0902 232.7737,-280.5901 222.7736,-277.0902 222.7737,-284.0902"/>
</g>
</g>
</svg>
